<svg version="1.2" xmlns="http://www.w3.org/2000/svg" viewBox="0 0 1200 600" width="1200" height="600">
	<style>
		.s0 { fill: #ffffff } 
	</style>
	<path id="Path 2" fill-rule="evenodd" class="s0" d="m91.28 299.9c0-15.82-12.81-28.6-28.64-28.6-15.84 0-28.64 12.78-28.64 28.6 0 15.82 12.8 28.6 28.64 28.6 15.83 0 28.64-12.78 28.64-28.6zm0 157.2c0-15.83-12.81-28.62-28.64-28.62-15.84 0-28.64 12.79-28.64 28.62 0 15.83 12.8 28.62 28.64 28.62 15.83 0 28.64-12.79 28.64-28.62zm157.22-157.2c0-15.82-12.79-28.6-28.62-28.6-15.82 0-28.62 12.78-28.62 28.6 0 15.82 12.8 28.6 28.62 28.6 15.83 0 28.62-12.78 28.62-28.6zm0 157.2c0-15.83-12.79-28.62-28.62-28.62-15.82 0-28.62 12.79-28.62 28.62 0 15.83 12.8 28.62 28.62 28.62 15.83 0 28.62-12.79 28.62-28.62zm157.27-157.2c0-15.82-12.8-28.6-28.62-28.6-15.83 0-28.62 12.78-28.62 28.6 0 15.82 12.79 28.6 28.62 28.6 15.82 0 28.62-12.78 28.62-28.6zm-314.49-157.26c0-15.82-12.81-28.6-28.64-28.6-15.84 0-28.64 12.78-28.64 28.6 0 15.81 12.8 28.6 28.64 28.6 15.83 0 28.64-12.79 28.64-28.6zm157.22 0c0-15.82-12.79-28.6-28.62-28.6-15.82 0-28.62 12.78-28.62 28.6 0 15.81 12.8 28.6 28.62 28.6 15.83 0 28.62-12.79 28.62-28.6zm157.27 0c0-15.82-12.8-28.6-28.62-28.6-15.83 0-28.62 12.78-28.62 28.6 0 15.81 12.79 28.6 28.62 28.6 15.82 0 28.62-12.79 28.62-28.6zm0 314.46c0-15.83-12.8-28.62-28.62-28.62-15.83 0-28.62 12.79-28.62 28.62 0 15.83 12.79 28.62 28.62 28.62 15.82 0 28.62-12.79 28.62-28.62zm157.22-157.2c0-15.82-12.78-28.6-28.6-28.6-15.82 0-28.6 12.78-28.6 28.6 0 15.82 12.78 28.6 28.6 28.6 15.82 0 28.6-12.78 28.6-28.6zm0 157.2c0-15.83-12.78-28.62-28.6-28.62-15.82 0-28.6 12.79-28.6 28.62 0 15.83 12.78 28.62 28.6 28.62 15.82 0 28.6-12.79 28.6-28.62zm0-314.48c0-15.83-12.78-28.62-28.6-28.62-15.82 0-28.6 12.79-28.6 28.62 0 15.83 12.78 28.62 28.6 28.62 15.82 0 28.6-12.79 28.6-28.62zm163.8 208.41c0-1.06 0.65-1.68 1.71-1.68h59.22c1.49 0 2.33-0.87 2.33-2.33v-13.35c0-1.45-0.84-2.11-2.33-2.11h-79.98c-1.49 0-2.11 0.66-2.11 2.11v148.55c0 1.46 0.62 2.11 2.11 2.11h17.14c1.29 0 1.91-0.65 1.91-2.11v-65.38h47.4c1.49 0 2.33-0.65 2.33-2.11v-13.57c0-1.46-0.84-2.11-2.33-2.11h-47.4zm153.4 0c0-1.06 0.43-1.68 1.49-1.68h61.55c1.5 0 2.34-0.88 2.34-2.33v-13.35c0-1.46-0.84-2.11-2.34-2.11h-82.08c-1.5 0-2.11 0.65-2.11 2.11v148.55c0 1.45 0.61 2.11 2.11 2.11h82.08c1.5 0 2.34-0.66 2.34-2.11v-13.58c0-1.45-0.84-2.1-2.34-2.1h-61.55c-1.06 0-1.49-0.62-1.49-1.69v-48.01h49.51c1.45 0 2.33-0.65 2.33-2.11v-13.57c0-1.46-0.88-2.11-2.33-2.11h-49.51zm141.55-19.47c-1.5 0-2.11 0.65-2.11 2.11v148.54c0 1.46 0.61 2.11 2.11 2.11h17.13c1.27 0 1.89-0.65 1.89-2.11v-148.54c0-1.46-0.62-2.11-1.89-2.11zm-320.98-69.96c14.39 7.41 28.15 8.89 45.72 8.89 32.56 0 53.52-16.28 53.52-45.91 0-21.6-10.17-34.7-36.61-45.9-22.62-9.13-25.8-13.15-25.8-21.6 0-8.67 5.94-14.58 19.47-14.58 9.95 0 18.41 1.68 26.64 5.07 1.91 0.84 3.18 0 3.79-1.49l9.97-19.45c0.66-1.5 0.66-2.99-1.29-3.61-15.42-6.77-24.3-8.25-44.84-8.25-31.51 0-50.14 18.39-50.14 43.15 0 22.64 11.42 36.61 37.9 47.84 20.51 9.08 24.75 13.52 24.75 22.2 0 9.3-7.62 14.81-20.31 14.81-14.62 0-22.03-2.95-30.92-6.97-1.68-0.65-2.95 0-3.58 1.46l-9.5 21.8c-0.45 0.84 0 1.68 1.23 2.54zm234.24 7.41c1.88 0 2.72-0.84 2.72-2.76v-121.23c0-1.07 0.45-1.68 1.5-1.68h35.95c1.72 0 2.56-0.84 2.56-2.75v-21.6c0-1.9-0.84-2.74-2.56-2.74h-107.89c-1.9 0-2.74 0.84-2.74 2.74v21.6c0 1.91 0.84 2.75 2.74 2.75h35.34c1.05 0 1.7 0.61 1.7 1.68v121.23c0 1.92 0.84 2.76 2.3 2.76zm230.19-150.02c0-1.9-0.84-2.74-2.34-2.74h-28.54c-1.68 0-2.56 0.84-2.56 2.74v101.99c0 15.03-8.23 22.42-24.94 22.42-16.52 0-24.76-7.39-24.76-22.42v-101.99c0-1.9-0.84-2.74-2.33-2.74h-28.38c-1.88 0-2.72 0.84-2.72 2.74v102.85c0 29.83 16.69 48.65 58.19 48.65 41.67 0 58.38-18.82 58.38-48.65z"/>
</svg>