<svg version="1.2" xmlns="http://www.w3.org/2000/svg" viewBox="0 0 1200 600" width="1200" height="600">
	<style>
		.s0 { fill: #ffffff } 
	</style>
	<path fill-rule="evenodd" class="s0" d="m40.11 144h60.88q0.62 0 1.19 0.24 0.57 0.24 1.01 0.67 0.44 0.44 0.68 1.01 0.23 0.57 0.23 1.19v187.24c0 41.66 25.44 65.34 62.72 65.34 37.28 0 62.72-23.68 62.72-65.34v-187.24q0-0.62 0.24-1.19 0.23-0.57 0.67-1.01 0.44-0.43 1.01-0.67 0.57-0.24 1.19-0.24h60.44q0.62 0 1.19 0.24 0.57 0.24 1.01 0.67 0.44 0.44 0.68 1.01 0.23 0.57 0.23 1.19v187.24c0 82.01-53.94 121.92-129.38 121.92-75.44 0-129.82-39.91-129.82-121.92v-187.24q0-0.62 0.24-1.19 0.24-0.57 0.67-1.01 0.44-0.43 1.01-0.67 0.57-0.24 1.19-0.24zm559.2 100.35h57.36c1.72 0 3.12 1.39 3.12 3.11v200.43c0 1.72-1.4 3.12-3.12 3.12h-57.36c-1.72 0-3.12-1.4-3.12-3.12v-200.43c0-1.72 1.4-3.11 3.12-3.11zm0-100.35h57.36c1.72 0 3.12 1.39 3.12 3.11v57.37c0 1.72-1.4 3.11-3.12 3.11h-57.36c-1.72 0-3.12-1.39-3.12-3.11v-57.37c0-1.72 1.4-3.11 3.12-3.11zm-461.39 0h57.36c1.72 0 3.12 1.39 3.12 3.11v57.37c0 1.72-1.4 3.11-3.12 3.11h-57.36c-1.72 0-3.12-1.39-3.12-3.11v-57.37c0-1.72 1.4-3.11 3.12-3.11zm668.88 0h67.1c0.58 0 1.14 0.16 1.63 0.46 0.49 0.31 0.88 0.74 1.14 1.25 0.26 0.51 0.37 1.09 0.33 1.66-0.05 0.57-0.26 1.12-0.6 1.59l-108.94 146.7q-0.3 0.41-0.46 0.88-0.16 0.48-0.16 0.99 0 0.5 0.16 0.98 0.16 0.48 0.46 0.88l108.99 146.71c0.34 0.46 0.54 1.01 0.59 1.58 0.05 0.57-0.06 1.15-0.32 1.66-0.26 0.51-0.66 0.94-1.15 1.25-0.48 0.3-1.05 0.46-1.62 0.46h-67.11q-0.36 0-0.72-0.09-0.35-0.08-0.68-0.25-0.32-0.16-0.6-0.4-0.28-0.24-0.5-0.53l-111.75-150.43q-0.3-0.41-0.46-0.89-0.15-0.47-0.16-0.98 0.01-0.5 0.16-0.98 0.16-0.48 0.46-0.88l111.93-150.35q0.2-0.27 0.45-0.5 0.26-0.22 0.55-0.38 0.3-0.17 0.62-0.27 0.32-0.09 0.66-0.12zm185.08 58.77h-86.49q-0.61 0-1.19-0.24-0.57-0.23-1.01-0.67-0.43-0.44-0.67-1.01-0.24-0.57-0.24-1.19v-52.55q0-0.62 0.24-1.19 0.24-0.57 0.67-1.01 0.44-0.43 1.01-0.67 0.58-0.24 1.19-0.24h254.38q0.62 0 1.19 0.24 0.58 0.24 1.01 0.67 0.44 0.44 0.68 1.01 0.24 0.57 0.24 1.19v52.63q0 0.62-0.24 1.2-0.24 0.57-0.68 1.01-0.43 0.43-1.01 0.67-0.57 0.24-1.19 0.24h-95.43q-0.62 0-1.19 0.23-0.58 0.24-1.01 0.68-0.44 0.44-0.68 1.01-0.24 0.57-0.24 1.19v241.97q0 0.62-0.23 1.19-0.24 0.57-0.68 1.01-0.44 0.44-1.01 0.67-0.57 0.24-1.19 0.24h-60q-0.62 0-1.19-0.24-0.57-0.23-1.01-0.67-0.44-0.44-0.68-1.01-0.23-0.57-0.23-1.19v-242.06q0-0.62-0.24-1.19-0.24-0.57-0.67-1.01-0.44-0.43-1.02-0.67-0.57-0.24-1.19-0.24zm-492.73 69.74q0.67 0.35 1.43 0.35 0.76 0 1.43-0.35 0.68-0.35 1.12-0.97l54.38-76.71c0.38-0.54 0.93-0.94 1.55-1.15 0.63-0.21 1.31-0.22 1.94-0.02 0.63 0.2 1.18 0.6 1.57 1.13 0.39 0.53 0.6 1.18 0.6 1.84v86.4q0 0.25-0.03 0.49-0.04 0.24-0.11 0.48-0.07 0.23-0.18 0.45-0.11 0.22-0.25 0.42l-60.04 82.81q-0.44 0.6-1.11 0.94-0.67 0.34-1.42 0.34-0.74 0-1.41-0.34-0.67-0.34-1.11-0.94l-87.28-121.14c-0.38-0.52-0.92-0.91-1.54-1.11-0.62-0.2-1.29-0.2-1.91 0-0.62 0.2-1.16 0.59-1.54 1.11-0.39 0.52-0.61 1.15-0.62 1.8v199.6q0 0.62-0.24 1.19-0.23 0.57-0.67 1.01-0.44 0.44-1.01 0.67-0.57 0.24-1.19 0.24h-57.02q-0.62 0-1.19-0.24-0.57-0.23-1.01-0.67-0.44-0.44-0.68-1.01-0.23-0.57-0.23-1.19v-300.83q0-0.62 0.23-1.19 0.24-0.57 0.68-1.01 0.44-0.43 1.01-0.67 0.57-0.24 1.19-0.24h61.93q0.37 0 0.74 0.09 0.36 0.09 0.69 0.26 0.33 0.17 0.61 0.42 0.29 0.24 0.5 0.55l89.08 126.22q0.44 0.62 1.11 0.97z"/>
</svg>